# xmcd
#
# Track frame offsets:
#	150
#	16202
#	29028
#	41720
#	55821
#	66439
#	81532
#	97179
#	112718
#	126084
#	143300
#	159671
#	174896
#	191815
#	205566
#	219994
#	232491
#	250956
#	267308
#	283134
#
# Disc length: 4028 seconds
#
# Revision: 5
# Processed by: cddbd v1.5.2PL0 Copyright (c) Steve Scherf et al.
# Submitted via: audiograbber 1.83.01
#
DISCID=2a0fba14
DTITLE=Various Artist - New Country Collection Vol.03 [CD1)
DYEAR=2009
DGENRE=Country
TTITLE0=Debbie Nunn - Look So Good
TTITLE1=Cody McCarver - White Trash With Money
TTITLE2=Gretchen Wilson - California Girls (Album Version)
TTITLE3=Terri Clark - Better Things To Do
TTITLE4=Joe Nichols - What's A Guy Gotta Do
TTITLE5=Michael Scott - Ray Ray's Juke Joint
TTITLE6=Chris Young - Beer Or Gasoline
TTITLE7=Jo Dee Messina - Heads Carolina, Tails California
TTITLE8=Tracy Byrd - The Truth About Men
TTITLE9=Kellie Coffey - Whatever It Takes
TTITLE10=Rodney Atkins - If You Going Through Hell (Before The Devil Even Knows
TTITLE10=)
TTITLE11=Lonestar - Say When
TTITLE12=Brad Paisley - Celebrity
TTITLE13=Clay Walker - Then What
TTITLE14=Deana Carter - Did I Shave My Legs For This
TTITLE15=Joe Diffie - New Way (To Light Up An Old Flame)
TTITLE16=Miranda Lambert - Famous In A Small Town
TTITLE17=Phil Vassar - Six-Pack Summer
TTITLE18=Mark Wills - The Things We Forget
TTITLE19=Chalee Tennison - Easy Lovin' You
EXTD=
EXTT0=
EXTT1=
EXTT2=
EXTT3=
EXTT4=
EXTT5=
EXTT6=
EXTT7=
EXTT8=
EXTT9=
EXTT10=
EXTT11=
EXTT12=
EXTT13=
EXTT14=
EXTT15=
EXTT16=
EXTT17=
EXTT18=
EXTT19=
PLAYORDER=
